<?xml version="1.0" standalone="no"?>
<!DOCTYPE svg PUBLIC "-//W3C//DTD SVG 20010904//EN"
 "http://www.w3.org/TR/2001/REC-SVG-20010904/DTD/svg10.dtd">
<svg version="1.0" xmlns="http://www.w3.org/2000/svg"
 width="144.000000pt" height="144.000000pt" viewBox="0 0 144.000000 144.000000"
 preserveAspectRatio="xMidYMid meet">
<metadata>
Created by potrace 1.11, written by Peter Selinger 2001-2013
</metadata>
<g transform="translate(0.000000,144.000000) scale(0.100000,-0.100000)"
fill="#000000" stroke="none">
<path d="M660 1336 c-79 -30 -109 -48 -192 -114 -94 -75 -196 -177 -323 -323
-41 -48 -125 -156 -125 -162 0 -3 6 -12 13 -19 7 -7 26 -31 42 -54 115 -158
331 -390 440 -474 164 -125 248 -125 427 -2 94 66 286 252 383 373 11 13 37
46 58 72 24 29 35 52 31 59 -5 7 -33 47 -63 88 -216 294 -432 512 -551 555
-67 25 -80 25 -140 1z"/>
</g>
</svg>
